<svg width="1200" height="1200" viewBox="0 0 1200 1200" fill="none" xmlns="http://www.w3.org/2000/svg">
<rect width="1200" height="1200" fill="white"/>
<g clip-path="url(#clip0)">
<path d="M943.712 901.863C943.646 901.573 937.289 872.584 950.272 848.507C963.255 824.43 990.969 813.812 991.247 813.707L992.514 813.232L992.813 814.552C992.879 814.842 999.236 843.831 986.253 867.909C973.27 891.985 945.556 902.603 945.278 902.708L944.011 903.183L943.712 901.863ZM990.777 816.454C985.225 818.842 963.316 829.293 952.351 849.627C941.385 869.964 944.693 894.014 945.748 899.961C951.297 897.579 973.198 887.144 984.174 866.788C995.14 846.452 991.832 822.404 990.777 816.454Z" fill="#3F3D56"/>
<path d="M976.331 859.463C953 873.5 944.014 901.381 944.014 901.381C944.014 901.381 972.856 906.504 996.187 892.467C1019.52 878.43 1028.5 850.549 1028.5 850.549C1028.5 850.549 999.662 845.426 976.331 859.463Z" fill="#D0CDE1"/>
<path d="M469.418 775C466.644 775 463.841 774.956 461.09 774.87L461.153 772.872C465.103 772.995 469.134 773.029 473.103 772.975L473.13 774.975C471.895 774.991 470.658 775 469.418 775ZM485.163 774.536L485.046 772.54C489.002 772.307 493.009 771.978 496.955 771.565L497.164 773.554C493.188 773.971 489.151 774.302 485.163 774.536V774.536ZM449.068 774.225C445.078 773.919 441.047 773.518 437.085 773.032L437.329 771.048C441.261 771.529 445.261 771.928 449.22 772.23L449.068 774.225ZM509.107 772.025L508.807 770.049C512.738 769.452 516.699 768.76 520.576 767.989L520.966 769.95C517.058 770.727 513.068 771.425 509.107 772.025V772.025ZM425.172 771.294C421.231 770.626 417.253 769.858 413.348 769.011L413.773 767.056C417.647 767.897 421.595 768.659 425.506 769.321L425.172 771.294ZM532.72 767.332L532.24 765.391C536.098 764.436 539.978 763.382 543.772 762.257L544.34 764.175C540.517 765.308 536.608 766.371 532.72 767.332ZM401.644 766.185C397.778 765.157 393.888 764.026 390.081 762.822L390.684 760.916C394.462 762.11 398.322 763.232 402.158 764.252L401.644 766.185ZM555.802 760.484L555.146 758.596C558.89 757.294 562.655 755.887 566.34 754.412L567.082 756.269C563.37 757.755 559.575 759.173 555.802 760.484ZM378.657 758.918C374.902 757.538 371.124 756.049 367.429 754.492L368.205 752.648C371.872 754.193 375.621 755.671 379.347 757.041L378.657 758.918ZM578.131 751.55L577.303 749.729C580.899 748.096 584.513 746.351 588.045 744.546L588.955 746.327C585.396 748.146 581.754 749.903 578.131 751.55ZM599.53 740.611L598.539 738.875C601.988 736.907 605.43 734.839 608.769 732.727L609.837 734.416C606.473 736.545 603.005 738.63 599.53 740.611V740.611ZM619.853 727.754L618.708 726.115C621.955 723.847 625.196 721.471 628.339 719.055L629.558 720.641C626.391 723.075 623.125 725.469 619.853 727.754V727.754ZM315.027 724.937C311.799 722.593 308.575 720.137 305.442 717.636L306.69 716.073C309.799 718.555 312.999 720.992 316.202 723.318L315.027 724.937ZM638.93 713.092L637.641 711.562C640.667 709.009 643.679 706.348 646.594 703.652L647.951 705.121C645.015 707.837 641.98 710.518 638.93 713.092V713.092ZM296.202 709.906C293.196 707.273 290.209 704.535 287.325 701.767L288.71 700.323C291.572 703.071 294.536 705.789 297.519 708.402L296.202 709.906ZM656.603 696.745L655.179 695.341C657.969 692.514 660.729 689.588 663.38 686.645L664.866 687.983C662.195 690.949 659.414 693.896 656.603 696.745V696.745ZM278.83 693.233C276.072 690.333 273.347 687.335 270.733 684.323L272.244 683.013C274.838 686.002 277.541 688.977 280.279 691.854L278.83 693.233ZM672.723 678.853L671.178 677.584C673.699 674.517 676.18 671.352 678.556 668.175L680.158 669.372C677.764 672.573 675.263 675.764 672.723 678.853ZM263.052 675.057C260.575 671.927 258.136 668.695 255.803 665.452L257.426 664.284C259.741 667.502 262.162 670.709 264.62 673.816L263.052 675.057ZM687.152 659.56L685.497 658.436C687.728 655.152 689.912 651.772 691.99 648.389L693.695 649.435C691.6 652.845 689.399 656.251 687.152 659.56ZM249.001 655.53C246.822 652.189 244.689 648.752 242.661 645.31L244.384 644.295C246.396 647.71 248.513 651.122 250.676 654.436L249.001 655.53ZM699.767 639.019L698.017 638.053C699.937 634.578 701.802 631.01 703.563 627.446L705.356 628.333C703.582 631.923 701.701 635.518 699.767 639.019H699.767ZM710.447 617.398L708.616 616.596C710.209 612.956 711.74 609.228 713.164 605.518L715.032 606.234C713.596 609.975 712.053 613.73 710.448 617.398H710.447ZM226.545 613.083C225.012 609.403 223.544 605.639 222.181 601.893L224.061 601.209C225.413 604.927 226.87 608.662 228.391 612.313L226.545 613.083ZM719.096 594.867L717.197 594.238C718.446 590.477 719.623 586.634 720.698 582.812L722.623 583.353C721.54 587.204 720.353 591.078 719.096 594.867V594.867ZM218.329 590.484C217.139 586.673 216.021 582.779 215.006 578.91L216.94 578.402C217.948 582.242 219.057 586.106 220.238 589.889L218.329 590.484ZM725.615 571.689L723.666 571.236C724.562 567.382 725.38 563.445 726.1 559.538L728.067 559.899C727.342 563.838 726.517 567.804 725.615 571.689ZM212.221 567.195C211.387 563.289 210.632 559.31 209.977 555.365L211.95 555.037C212.6 558.952 213.349 562.901 214.177 566.777L212.221 567.195ZM729.973 548.012L727.99 547.74C728.529 543.823 728.983 539.829 729.341 535.868L731.333 536.048C730.972 540.04 730.514 544.064 729.973 548.012ZM208.279 543.445C207.807 539.486 207.42 535.454 207.128 531.461L209.123 531.314C209.412 535.278 209.797 539.279 210.265 543.209L208.279 543.445ZM732.148 524.036L730.15 523.946C730.327 519.983 730.418 515.964 730.418 512H732.418C732.418 515.994 732.327 520.044 732.148 524.036ZM206.522 519.435C206.453 516.982 206.419 514.48 206.418 512C206.418 510.461 206.431 508.925 206.458 507.392L208.458 507.427C208.431 508.948 208.418 510.473 208.418 512C208.419 514.462 208.453 516.945 208.521 519.38L206.522 519.435ZM208.932 495.487L206.936 495.362C207.186 491.366 207.531 487.33 207.96 483.365L209.948 483.581C209.522 487.515 209.18 491.52 208.932 495.487H208.932ZM729.127 483.285C728.727 479.342 728.178 477.42 727.598 473.494L729.576 473.202C730.16 477.158 730.661 480.177 731.065 484.15L729.127 483.285ZM211.505 471.734L209.529 471.428C210.141 467.472 210.853 463.484 211.645 459.574L213.605 459.971C212.82 463.851 212.113 467.808 211.505 471.734H211.505ZM725.579 461.718C724.817 457.817 723.956 453.89 723.021 450.046L724.964 449.573C725.907 453.446 726.774 457.404 727.542 461.334L725.579 461.718ZM216.242 448.317L214.303 447.831C215.274 443.957 216.349 440.051 217.5 436.221L219.415 436.796C218.274 440.597 217.206 444.473 216.242 448.317ZM719.927 438.503C718.812 434.695 717.593 430.865 716.305 427.117L718.196 426.466C719.494 430.243 720.723 434.104 721.847 437.941L719.927 438.503ZM223.127 425.403L221.241 424.74C222.57 420.959 224.005 417.161 225.506 413.449L227.36 414.199C225.87 417.882 224.446 421.652 223.127 425.403V425.403ZM712.16 415.909C710.701 412.228 709.139 408.534 707.516 404.929L709.34 404.108C710.976 407.741 712.55 411.463 714.02 415.171L712.16 415.909ZM232.104 403.206L230.286 402.371C231.957 398.733 233.735 395.085 235.571 391.529L237.348 392.446C235.526 395.976 233.762 399.596 232.104 403.206ZM702.372 394.17C700.582 390.64 698.686 387.102 696.736 383.656L698.476 382.67C700.442 386.143 702.352 389.708 704.156 393.266L702.372 394.17ZM243.081 381.941L241.347 380.943C243.343 377.478 245.447 374.011 247.601 370.637L249.287 371.713C247.149 375.061 245.06 378.503 243.081 381.941ZM690.622 373.406C688.509 370.041 686.296 366.69 684.045 363.444L685.688 362.304C687.956 365.575 690.187 368.952 692.316 372.342L690.622 373.406ZM255.954 361.782L254.319 360.63C256.625 357.36 259.035 354.101 261.486 350.942L263.066 352.168C260.635 355.303 258.241 358.537 255.954 361.782ZM677.018 353.79C674.608 350.633 672.098 347.495 669.556 344.463L671.089 343.178C673.65 346.234 676.179 349.395 678.608 352.576L677.018 353.79ZM270.607 342.891L269.085 341.594C271.672 338.555 274.369 335.53 277.1 332.603L278.562 333.968C275.852 336.873 273.176 339.875 270.607 342.891ZM661.677 335.483C658.991 332.559 656.203 329.66 653.395 326.869L654.805 325.45C657.635 328.263 660.443 331.183 663.15 334.129L661.677 335.483ZM286.912 325.419L285.513 323.989C288.373 321.191 291.333 318.425 294.309 315.768L295.641 317.26C292.687 319.897 289.75 322.642 286.912 325.419V325.419ZM644.73 318.639C641.785 315.969 638.745 313.335 635.695 310.811L636.97 309.27C640.043 311.813 643.107 314.467 646.073 317.158L644.73 318.639ZM304.73 309.507L303.468 307.956C306.561 305.437 309.758 302.953 312.97 300.572L314.161 302.179C310.973 304.542 307.8 307.007 304.73 309.507H304.73ZM323.912 295.29L322.796 293.631C326.107 291.403 329.515 289.222 332.927 287.146L333.966 288.855C330.58 290.915 327.198 293.08 323.912 295.29H323.912ZM344.3 282.889L343.34 281.134C346.843 279.217 350.434 277.358 354.014 275.606L354.893 277.403C351.34 279.141 347.776 280.986 344.3 282.889ZM585.67 278.255C582.112 276.482 578.466 274.769 574.835 273.164L575.644 271.335C579.303 272.952 582.977 274.678 586.563 276.465L585.67 278.255ZM365.722 272.411L364.927 270.576C368.587 268.989 372.331 267.468 376.055 266.053L376.765 267.923C373.07 269.327 369.354 270.836 365.722 272.411ZM563.774 268.576C560.071 267.14 556.281 265.77 552.508 264.504L553.145 262.608C556.946 263.884 560.765 265.264 564.496 266.712L563.774 268.576ZM388.031 263.939L387.408 262.039C391.208 260.793 395.086 259.62 398.933 258.553L399.468 260.479C395.65 261.539 391.802 262.703 388.031 263.939H388.031ZM541.094 260.966C537.28 259.878 533.389 258.866 529.531 257.956L529.99 256.01C533.878 256.926 537.798 257.947 541.643 259.042L541.094 260.966ZM411.053 257.55L410.607 255.601C414.504 254.71 418.473 253.899 422.404 253.19L422.76 255.158C418.858 255.862 414.919 256.667 411.053 257.55ZM517.84 255.483C513.946 254.752 509.979 254.102 506.049 253.55L506.326 251.57C510.286 252.126 514.284 252.781 518.209 253.518L517.84 255.483ZM434.565 253.307L434.3 251.325C438.259 250.796 442.285 250.352 446.267 250.005L446.441 251.998C442.49 252.342 438.494 252.783 434.565 253.307ZM494.181 252.16C490.241 251.789 486.232 251.502 482.262 251.31L482.36 249.312C486.359 249.506 490.399 249.794 494.368 250.168L494.181 252.16ZM458.366 251.23L458.282 249.232C461.958 249.079 465.704 249.001 469.418 249L470.324 249.001L470.318 251.001L469.418 251C465.733 251.001 462.014 251.079 458.366 251.23V251.23Z" fill="#3F3D56"/>
<path d="M1051 901.292H318V903.292H1051V901.292Z" fill="#3F3D56"/>
<path d="M747.011 565.025L757.011 720.025C757.011 720.025 781.011 781.025 780.011 839.025C780.011 839.025 771.011 862.025 778.011 866.025C785.011 870.025 789.011 873.025 785.011 876.025C781.011 879.025 778.011 886.025 781.011 888.025C784.011 890.025 785.011 893.025 784.011 893.025H754.011C754.011 893.025 760.011 878.025 751.011 874.025C742.011 870.025 747.011 860.025 747.011 860.025L680.011 664.025L627.011 844.025C627.011 844.025 636.011 850.025 629.011 853.025C622.011 856.025 619.011 850.025 622.011 856.025C625.011 862.025 621.011 865.025 621.011 866.025C621.011 867.025 591.011 863.025 591.011 863.025C591.011 863.025 606.011 850.025 599.011 847.025C592.011 844.025 589.011 841.025 591.011 839.025C593.011 837.025 601.011 818.025 601.011 818.025C601.011 818.025 605.011 746.025 606.011 743.025C607.011 740.025 606.011 726.025 606.011 719.025C606.011 712.025 605.011 684.025 608.011 677.025C611.011 670.025 614.011 584.025 630.011 574.025C646.011 564.025 747.011 565.025 747.011 565.025Z" fill="#2F2E41"/>
<path d="M620.011 861.025C620.011 861.025 640.011 902.025 626.011 907.025C612.011 912.025 594.011 908.025 590.011 914.025C586.011 920.025 542.011 927.025 541.011 912.025C540.011 897.025 589.011 869.025 589.011 869.025L595.394 858.747L620.011 861.025Z" fill="#2F2E41"/>
<path d="M782.011 891.025C782.011 891.025 802.011 932.025 788.011 937.025C774.011 942.025 756.011 938.025 752.011 944.025C748.011 950.025 704.011 957.025 703.011 942.025C702.011 927.025 751.011 899.025 751.011 899.025L757.394 888.747L782.011 891.025Z" fill="#2F2E41"/>
<path d="M689.511 376.525C707.736 376.525 722.511 361.751 722.511 343.525C722.511 325.3 707.736 310.525 689.511 310.525C671.285 310.525 656.51 325.3 656.51 343.525C656.51 361.751 671.285 376.525 689.511 376.525Z" fill="#A0616A"/>
<path d="M712.011 361.025L708.011 390.025L678.011 413.025L670.011 402.025V364.025L712.011 361.025Z" fill="#A0616A"/>
<path d="M665.01 398.025C665.01 398.025 696.01 401.025 712.01 390.025L744.01 579.025C744.01 579.025 631.01 588.025 626.01 582.025V523.025L646.01 427.025L665.01 398.025Z" fill="#3F3D56"/>
<path d="M709.257 380.989L720.011 390.025C720.011 390.025 764.011 397.025 761.011 409.025L749.011 551.025L753.011 599.025C753.011 599.025 719.011 590.025 693.011 599.025C667.011 608.025 687.667 405.622 687.667 405.622C687.667 405.622 711.503 383.953 709.257 380.989Z" fill="#D0CDE1"/>
<path d="M670.01 391.935C670.01 391.935 638.01 415.025 634.01 430.025C630.01 445.025 617.01 603.025 617.01 603.025C617.01 603.025 623.01 600.025 626.01 605.025C629.01 610.025 675.01 399.844 670.01 391.935Z" fill="#D0CDE1"/>
<path d="M656.526 342.087C656.526 342.087 652.954 336.729 654.328 330.958C655.149 327.681 655.473 324.3 655.29 320.928C655.29 320.928 658.175 311.584 661.061 306.363C663.946 301.142 662.572 298.943 671.641 297.294C680.709 295.646 676.999 283.829 700.907 296.607C701.714 297.734 702.836 298.596 704.132 299.085C705.428 299.574 706.84 299.668 708.19 299.355C713.136 298.394 714.922 305.264 714.922 305.264C714.922 305.264 718.22 303.34 719.457 306.088C720.693 308.836 729.511 304.439 729.511 322.988C729.511 341.537 719.477 358.107 719.477 358.107C719.477 358.107 720.212 326.905 703.861 323.744C687.511 320.584 669.923 311.378 665.664 323.195C663.364 329.827 660.298 336.167 656.526 342.087V342.087Z" fill="#2F2E41"/>
<path d="M719.835 349.506C721.616 349.506 723.06 347.581 723.06 345.206C723.06 342.831 721.616 340.906 719.835 340.906C718.054 340.906 716.61 342.831 716.61 345.206C716.61 347.581 718.054 349.506 719.835 349.506Z" fill="#A0616A"/>
<path d="M584.301 654.45C576.388 649.691 566.847 650.055 563.22 650.418C564.601 653.791 568.745 662.392 576.658 667.153C584.59 671.924 594.119 671.549 597.74 671.188C596.36 667.817 592.215 659.212 584.301 654.45Z" fill="#D0CDE1"/>
<path d="M621.484 748.874H572.028C569.077 748.874 566.246 750.046 564.16 752.133C562.073 754.22 560.9 757.05 560.9 760.001C560.9 762.952 562.073 765.783 564.16 767.87C566.246 769.956 569.077 771.129 572.028 771.129H621.484C624.433 771.126 627.261 769.952 629.345 767.866C631.43 765.779 632.601 762.95 632.601 760.001C632.601 757.052 631.43 754.223 629.345 752.136C627.261 750.05 624.433 748.876 621.484 748.874Z" fill="#D0CDE1"/>
<path d="M845.438 631.416H568.153C564.928 631.416 561.734 632.051 558.754 633.285C555.774 634.52 553.066 636.329 550.785 638.61C548.504 640.891 546.695 643.598 545.461 646.578C544.226 649.558 543.591 652.752 543.591 655.978V791.076C543.591 797.591 546.179 803.838 550.785 808.445C555.391 813.051 561.639 815.639 568.153 815.639H845.438C848.663 815.639 851.857 815.004 854.837 813.769C857.817 812.535 860.525 810.726 862.806 808.445C865.087 806.164 866.896 803.456 868.13 800.476C869.365 797.496 870 794.302 870 791.076V655.978C870 652.752 869.365 649.558 868.13 646.578C866.896 643.598 865.087 640.891 862.806 638.61C860.525 636.329 857.817 634.52 854.837 633.285C851.857 632.051 848.663 631.416 845.438 631.416ZM561.293 648.171C561.84 648.072 574.824 645.862 585.576 652.332C596.327 658.8 600.457 671.308 600.628 671.836L601.062 673.185L599.667 673.433C597.677 673.743 595.664 673.891 593.65 673.874C588.767 673.874 581.692 673.067 575.383 669.271C564.632 662.804 560.503 650.296 560.332 649.767L559.898 648.418L561.293 648.171ZM621.484 773.601H572.028C568.421 773.601 564.962 772.168 562.411 769.618C559.861 767.067 558.428 763.608 558.428 760.001C558.428 756.394 559.861 752.935 562.411 750.384C564.962 747.833 568.421 746.401 572.028 746.401H621.484C625.091 746.401 628.55 747.833 631.101 750.384C633.651 752.935 635.084 756.394 635.084 760.001C635.084 763.608 633.651 767.067 631.101 769.618C628.55 772.168 625.091 773.601 621.484 773.601V773.601ZM846.508 771.129C846.497 775.06 844.93 778.827 842.15 781.607C839.37 784.387 835.603 785.954 831.672 785.965H794.58C790.648 785.954 786.881 784.387 784.101 781.607C781.321 778.827 779.754 775.06 779.743 771.129V748.873C779.754 744.942 781.321 741.175 784.101 738.395C786.881 735.615 790.648 734.048 794.58 734.037H831.672C835.603 734.048 839.37 735.615 842.15 738.395C844.93 741.175 846.497 744.942 846.509 748.873L846.508 771.129Z" fill="#D0CDE1"/>
<path d="M806.326 766.801H790.252C789.105 766.801 788.004 767.257 787.192 768.069C786.381 768.88 785.925 769.981 785.925 771.129C785.925 772.276 786.381 773.377 787.192 774.189C788.004 775 789.105 775.456 790.252 775.456H806.326C807.473 775.456 808.574 775 809.385 774.189C810.197 773.377 810.653 772.276 810.653 771.129C810.653 769.981 810.197 768.88 809.385 768.069C808.574 767.257 807.473 766.801 806.326 766.801V766.801ZM806.326 772.983H790.252C790.008 772.984 789.767 772.936 789.541 772.843C789.316 772.75 789.111 772.614 788.938 772.442C788.765 772.269 788.628 772.065 788.535 771.839C788.442 771.614 788.393 771.373 788.393 771.129C788.393 770.885 788.442 770.643 788.535 770.418C788.628 770.193 788.765 769.988 788.938 769.816C789.111 769.644 789.316 769.507 789.541 769.414C789.767 769.321 790.008 769.274 790.252 769.274H806.326C806.569 769.274 806.811 769.321 807.036 769.414C807.262 769.507 807.467 769.644 807.64 769.816C807.812 769.988 807.949 770.193 808.043 770.418C808.136 770.643 808.184 770.885 808.184 771.129C808.184 771.373 808.136 771.614 808.043 771.839C807.949 772.065 807.812 772.269 807.64 772.442C807.467 772.614 807.262 772.75 807.036 772.843C806.811 772.936 806.569 772.984 806.326 772.983V772.983Z" fill="#D0CDE1"/>
<path d="M835.999 766.801H819.926C819.357 766.8 818.794 766.912 818.268 767.129C817.742 767.346 817.264 767.664 816.862 768.066C816.459 768.468 816.14 768.946 815.922 769.471C815.704 769.997 815.592 770.56 815.592 771.129C815.592 771.698 815.704 772.261 815.922 772.786C816.14 773.312 816.459 773.789 816.862 774.191C817.264 774.593 817.742 774.911 818.268 775.129C818.794 775.346 819.357 775.457 819.926 775.456H835.999C837.147 775.456 838.247 775 839.059 774.189C839.87 773.377 840.326 772.276 840.326 771.129C840.326 769.981 839.87 768.88 839.059 768.069C838.247 767.257 837.147 766.801 835.999 766.801ZM835.999 772.983H819.926C819.682 772.984 819.44 772.936 819.215 772.843C818.989 772.75 818.784 772.614 818.612 772.442C818.439 772.269 818.302 772.065 818.208 771.839C818.115 771.614 818.067 771.373 818.067 771.129C818.067 770.885 818.115 770.643 818.208 770.418C818.302 770.193 818.439 769.988 818.612 769.816C818.784 769.644 818.989 769.507 819.215 769.414C819.44 769.321 819.682 769.274 819.926 769.274H835.999C836.49 769.275 836.961 769.471 837.308 769.819C837.654 770.167 837.849 770.638 837.849 771.129C837.849 771.62 837.654 772.091 837.308 772.439C836.961 772.786 836.49 772.982 835.999 772.983V772.983Z" fill="#D0CDE1"/>
<path d="M806.326 755.674H790.252C789.105 755.674 788.004 756.13 787.192 756.941C786.381 757.753 785.925 758.853 785.925 760.001C785.925 761.149 786.381 762.249 787.192 763.061C788.004 763.872 789.105 764.328 790.252 764.328H806.326C806.894 764.329 807.458 764.218 807.984 764.001C808.509 763.784 808.987 763.465 809.39 763.063C809.792 762.661 810.112 762.184 810.329 761.659C810.547 761.133 810.659 760.57 810.659 760.001C810.659 759.432 810.547 758.869 810.329 758.343C810.112 757.818 809.792 757.341 809.39 756.939C808.987 756.537 808.509 756.218 807.984 756.001C807.458 755.784 806.894 755.673 806.326 755.674V755.674ZM806.326 761.856H790.252C789.76 761.856 789.289 761.66 788.941 761.312C788.593 760.965 788.398 760.493 788.398 760.001C788.398 759.509 788.593 759.037 788.941 758.69C789.289 758.342 789.76 758.146 790.252 758.146H806.326C806.817 758.146 807.289 758.342 807.637 758.69C807.985 759.037 808.18 759.509 808.18 760.001C808.18 760.493 807.985 760.965 807.637 761.312C807.289 761.66 806.817 761.856 806.326 761.856V761.856Z" fill="#D0CDE1"/>
<path d="M835.999 755.674H819.926C819.357 755.673 818.794 755.784 818.268 756.001C817.742 756.218 817.264 756.537 816.862 756.939C816.459 757.341 816.14 757.818 815.922 758.343C815.704 758.869 815.592 759.432 815.592 760.001C815.592 760.57 815.704 761.133 815.922 761.659C816.14 762.184 816.459 762.661 816.862 763.063C817.264 763.465 817.742 763.784 818.268 764.001C818.794 764.218 819.357 764.329 819.926 764.328H835.999C837.147 764.328 838.247 763.872 839.059 763.061C839.87 762.249 840.326 761.149 840.326 760.001C840.326 758.853 839.87 757.753 839.059 756.941C838.247 756.13 837.147 755.674 835.999 755.674ZM835.999 761.856H819.926C819.434 761.856 818.962 761.66 818.614 761.312C818.267 760.965 818.071 760.493 818.071 760.001C818.071 759.509 818.267 759.037 818.614 758.69C818.962 758.342 819.434 758.146 819.926 758.146H835.999C836.491 758.146 836.963 758.342 837.31 758.69C837.658 759.037 837.854 759.509 837.854 760.001C837.854 760.493 837.658 760.965 837.31 761.312C836.963 761.66 836.491 761.856 835.999 761.856Z" fill="#D0CDE1"/>
<path d="M806.326 744.546H790.252C789.105 744.546 788.004 745.002 787.192 745.814C786.381 746.625 785.925 747.726 785.925 748.874C785.925 750.021 786.381 751.122 787.192 751.933C788.004 752.745 789.105 753.201 790.252 753.201H806.326C807.473 753.201 808.574 752.745 809.385 751.933C810.197 751.122 810.653 750.021 810.653 748.874C810.653 747.726 810.197 746.625 809.385 745.814C808.574 745.002 807.473 744.546 806.326 744.546V744.546ZM806.326 750.728H790.252C789.76 750.728 789.289 750.533 788.941 750.185C788.593 749.837 788.398 749.365 788.398 748.874C788.398 748.382 788.593 747.91 788.941 747.562C789.289 747.214 789.76 747.019 790.252 747.019H806.326C806.817 747.019 807.289 747.214 807.637 747.562C807.985 747.91 808.18 748.382 808.18 748.874C808.18 749.365 807.985 749.837 807.637 750.185C807.289 750.533 806.817 750.728 806.326 750.728V750.728Z" fill="#D0CDE1"/>
<path d="M835.999 744.546H819.926C819.357 744.545 818.794 744.657 818.268 744.874C817.742 745.091 817.264 745.409 816.862 745.811C816.459 746.213 816.14 746.691 815.922 747.216C815.704 747.741 815.592 748.305 815.592 748.874C815.592 749.442 815.704 750.006 815.922 750.531C816.14 751.057 816.459 751.534 816.862 751.936C817.264 752.338 817.742 752.656 818.268 752.873C818.794 753.091 819.357 753.202 819.926 753.201H835.999C837.146 753.199 838.245 752.743 839.055 751.931C839.865 751.12 840.32 750.02 840.32 748.874C840.32 747.727 839.865 746.627 839.055 745.816C838.245 745.005 837.146 744.548 835.999 744.546V744.546ZM835.999 750.728H819.926C819.434 750.728 818.962 750.533 818.614 750.185C818.267 749.837 818.071 749.365 818.071 748.874C818.071 748.382 818.267 747.91 818.614 747.562C818.962 747.214 819.434 747.019 819.926 747.019H835.999C836.491 747.019 836.963 747.214 837.31 747.562C837.658 747.91 837.854 748.382 837.854 748.874C837.854 749.365 837.658 749.837 837.31 750.185C836.963 750.533 836.491 750.728 835.999 750.728Z" fill="#D0CDE1"/>
<path d="M758.011 601.025L750.842 624.417C750.842 624.417 749.011 668.025 725.011 662.025C701.011 656.025 732.011 605.025 732.011 605.025L739.011 594.025L758.011 601.025Z" fill="#A0616A"/>
<path d="M622.011 601.025L614.842 624.417C614.842 624.417 613.011 668.025 589.011 662.025C565.011 656.025 596.011 605.025 596.011 605.025L603.011 594.025L622.011 601.025Z" fill="#A0616A"/>
<path d="M753.01 402.025C753.01 402.025 769.01 398.025 774.01 425.025C779.01 452.025 785.01 529.025 785.01 529.025L761.01 610.025C761.01 610.025 737.01 597.025 732.01 599.025L750.897 528.704L735.01 457.025C735.01 457.025 749.01 402.025 753.01 402.025Z" fill="#D0CDE1"/>
<path opacity="0.15" d="M729.747 458.393L750.747 528.393L729.747 599.393L741.747 528.393L729.747 458.393Z" fill="black"/>
<path d="M634.01 457.025L598.01 599.025C598.01 599.025 617 605.292 624 610.292L634.01 457.025Z" fill="#D0CDE1"/>
<path d="M256.362 813.884C311.591 813.884 356.362 769.113 356.362 713.884C356.362 658.656 311.591 613.884 256.362 613.884C201.134 613.884 156.362 658.656 156.362 713.884C156.362 769.113 201.134 813.884 256.362 813.884Z" fill="#3F3D56"/>
<path opacity="0.1" d="M256.362 799.884C303.859 799.884 342.362 761.381 342.362 713.884C342.362 666.388 303.859 627.884 256.362 627.884C208.866 627.884 170.362 666.388 170.362 713.884C170.362 761.381 208.866 799.884 256.362 799.884Z" fill="black"/>
<path d="M252.241 764.632V752.115C245.914 751.992 239.368 749.76 235.55 746.662L238.168 738.359C242.706 741.759 248.208 743.625 253.878 743.687C261.623 743.687 266.86 738.606 266.86 731.542C266.86 724.726 262.605 720.513 254.532 716.794C243.405 711.837 236.532 706.136 236.532 695.354C236.532 685.068 242.969 677.26 253.005 675.401V662.884H259.769V674.906C264.812 674.975 269.732 676.479 273.951 679.243L271.223 687.423C267.177 684.653 262.382 683.183 257.478 683.209C249.078 683.209 245.914 688.91 245.914 693.867C245.914 700.311 249.95 703.534 259.442 707.996C270.678 713.201 276.351 719.645 276.351 730.675C276.351 740.465 270.351 749.637 259.114 751.742V764.632H252.241Z" fill="#6C63FF"/>
<path d="M362 917.292C291.39 927.823 219.61 927.823 149 917.292V893.292C219.684 902.759 291.316 902.759 362 893.292V917.292Z" fill="#3F3D56"/>
<path d="M362 880.292C291.39 890.823 219.61 890.823 149 880.292V856.292C219.684 865.759 291.316 865.759 362 856.292V880.292Z" fill="#3F3D56"/>
<path d="M362 843.292C291.39 853.823 219.61 853.823 149 843.292V819.292C219.684 828.759 291.316 828.759 362 819.292V843.292Z" fill="#3F3D56"/>
</g>
<defs>
<clipPath id="clip0">
<rect width="902" height="702.007" fill="white" transform="translate(149 249)"/>
</clipPath>
</defs>
</svg>
